<svg version="1.1" xmlns="http://www.w3.org/2000/svg" viewBox="160 150 710 690" preserveAspectRatio="xMidYMid meet">
<defs>
  <mask id="frog-cutouts">
    <rect x="160" y="150" width="710" height="690" fill="white"/>
    <!-- Frog face area (cut out) -->
    <path fill="black" d="M 528.595 423.414 C 536.105 422.465 545.546 423.341 553.05 423.818 C 611.904 427.96 676.251 462.197 684.823 525.699 C 692.911 585.624 653.599 630.154 599.288 648.736 C 583.913 653.996 570.26 655.921 554.249 657.924 C 510.023 660.166 468.341 651.964 433.334 623.058 C 411.965 604.751 396.513 579.37 394.473 551.036 C 388.663 470.347 456.587 429.508 528.595 423.414 z"/>
    <!-- Eyes (keep visible) -->
    <path fill="white" d="M 596.143 485.127 C 621.355 484.487 623.777 534.834 599.047 544.818 C 573.421 541.85 570.132 495.638 596.143 485.127 z"/>
    <path fill="white" d="M 477.224 485.955 C 503.615 486.82 505.616 533.324 485.276 545.065 C 457.332 545.082 454.769 495.472 477.224 485.955 z"/>
    <!-- Mouth (keep visible) -->
    <path fill="white" d="M 491.276 553.492 C 503.568 558.79 507.147 571.178 527.245 574.882 C 552.209 579.483 563.319 572.442 582.608 556.73 C 584.444 555.235 586.585 555.718 588.458 556.246 C 589.851 561.241 586.978 564.81 584.374 569.503 C 574.312 583.668 560.635 592.352 543.023 593.444 C 528.926 594.231 515.091 589.412 504.533 580.039 C 496.645 572.951 491.876 564.143 491.276 553.492 z"/>
  </mask>
</defs>
<g mask="url(#frog-cutouts)">
  <path fill="#00d6bd" d="M 277.272 394.426 C 309.814 306.009 354.7 211.902 444.604 171.056 C 583.536 107.935 680.794 214.787 732.35 328.178 C 744.669 355.649 755.936 383.58 766.129 411.909 C 775.705 438.116 783.155 460.072 794.515 486.248 C 811.005 524.244 835.779 557.403 849.781 595.794 C 854.893 609.813 855.639 628.971 850.094 643.074 C 835.557 680.046 804.599 688.826 778.909 708.604 C 798.787 701.202 820.242 693.274 839.855 685.498 C 856.18 679.025 881.57 724.441 889.535 736.775 C 869.471 738.583 849.565 740.8 829.561 742.772 C 749.633 750.653 673.4 776.706 600.515 809.52 C 597.505 810.875 594.555 812.121 591.591 813.614 C 564.318 788.399 539.472 766.331 509.898 743.922 C 455.957 702.768 390.649 664.573 350.758 608.981 C 277.694 507.162 454.158 362.464 542.842 358.91 C 620.05 355.815 750.529 522.408 750.769 595.329 C 750.963 653.948 682.676 708.737 637.157 738.738 C 625.191 746.597 611.997 753.875 600.689 762.931 C 655.579 742.002 752.373 686.069 777.468 629.827 C 789.903 601.957 783.323 569.362 772.737 542.065 C 745.498 471.821 666.172 353.939 596.14 323.163 C 563.686 308.9 531.855 313.731 499.63 326.387 C 424.401 355.932 313.58 436.436 280.536 512.454 C 269.677 537.435 265.558 566.428 275.9 592.27 C 303.8 661.99 406.456 704.005 466.767 742.258 C 501.023 763.985 535.16 790.172 559.407 822.931 C 518.616 827.758 482.446 818.135 444.311 805.944 C 359.627 778.875 276.103 748.603 187.324 737.851 C 183.728 737.415 180.014 736.61 176.517 735.591 C 163.957 724.718 196.733 677.194 207.433 679.563 C 247.382 688.407 288.129 708.658 328.229 717.431 C 284.293 690.152 212.807 674.018 198.54 614.471 C 183.109 550.062 232.564 488.975 265.316 438.075 C 286.536 405.706 312.415 365.359 338.088 336.431 L 336.63 333.103 C 316.363 353.073 296.572 373.519 277.272 394.426 z"/>
  <path fill="#b3f5e8" d="M 336.63 333.103 C 341.684 327.982 344.994 325.227 350.656 320.743 C 347.078 325.235 341.773 332.362 338.088 336.431 L 336.63 333.103 z"/>
  <path fill="#00d6bd" d="M 596.143 485.127 C 621.355 484.487 623.777 534.834 599.047 544.818 C 573.421 541.85 570.132 495.638 596.143 485.127 z"/>
  <path fill="#00d6bd" d="M 477.224 485.955 C 503.615 486.82 505.616 533.324 485.276 545.065 C 457.332 545.082 454.769 495.472 477.224 485.955 z"/>
  <path fill="#00d6bd" d="M 491.276 553.492 C 503.568 558.79 507.147 571.178 527.245 574.882 C 552.209 579.483 563.319 572.442 582.608 556.73 C 584.444 555.235 586.585 555.718 588.458 556.246 C 589.851 561.241 586.978 564.81 584.374 569.503 C 574.312 583.668 560.635 592.352 543.023 593.444 C 528.926 594.231 515.091 589.412 504.533 580.039 C 496.645 572.951 491.876 564.143 491.276 553.492 z"/>
</g>
</svg>
