<svg version="1.1" xmlns="http://www.w3.org/2000/svg" style="display: block;" viewBox="0 0 2048 925" width="1222" height="552" preserveAspectRatio="none">
<defs>
  <mask id="cutouts">
    <rect width="2048" height="925" fill="white"/>
    <!-- Frog face area (cut out) -->
    <path fill="black" d="M 528.595 423.414 C 536.105 422.465 545.546 423.341 553.05 423.818 C 611.904 427.96 676.251 462.197 684.823 525.699 C 692.911 585.624 653.599 630.154 599.288 648.736 C 583.913 653.996 570.26 655.921 554.249 657.924 C 510.023 660.166 468.341 651.964 433.334 623.058 C 411.965 604.751 396.513 579.37 394.473 551.036 C 388.663 470.347 456.587 429.508 528.595 423.414 z"/>
    <!-- Eyes (keep visible) -->
    <path fill="white" d="M 596.143 485.127 C 621.355 484.487 623.777 534.834 599.047 544.818 C 573.421 541.85 570.132 495.638 596.143 485.127 z"/>
    <path fill="white" d="M 477.224 485.955 C 503.615 486.82 505.616 533.324 485.276 545.065 C 457.332 545.082 454.769 495.472 477.224 485.955 z"/>
    <!-- Mouth (keep visible) -->
    <path fill="white" d="M 491.276 553.492 C 503.568 558.79 507.147 571.178 527.245 574.882 C 552.209 579.483 563.319 572.442 582.608 556.73 C 584.444 555.235 586.585 555.718 588.458 556.246 C 589.851 561.241 586.978 564.81 584.374 569.503 C 574.312 583.668 560.635 592.352 543.023 593.444 C 528.926 594.231 515.091 589.412 504.533 580.039 C 496.645 572.951 491.876 564.143 491.276 553.492 z"/>
    <!-- Inner hole of letter p -->
    <path fill="black" d="M 1456.53 475.244 C 1464.56 474.765 1472.47 474.259 1480.19 477.022 C 1487.52 479.57 1493.49 485.011 1496.71 492.078 C 1502.16 504.029 1501.95 529.755 1496.74 542.092 C 1491.83 553.74 1486.67 557.54 1476 562.269 C 1460.76 567.62 1446.94 564.681 1432.41 558.983 C 1430.85 544.047 1431.65 500.027 1432.28 484.143 C 1441.9 478.45 1445.51 477.092 1456.53 475.244 z"/>
    <!-- Inner hole of letter a -->
    <path fill="black" d="M 1635.41 529.408 C 1645.92 529.094 1654.47 529.301 1664.95 529.713 C 1665.13 538.588 1665.03 547.466 1664.66 556.335 C 1657.22 563.413 1650.2 565.314 1640.65 567.123 C 1630.86 567.465 1621.45 568.517 1613.68 561.733 C 1603.09 552.479 1606.68 538.516 1618.57 532.645 C 1624.69 529.623 1628.9 529.806 1635.41 529.408 z"/>
    <!-- Inner hole of letter e -->
    <path fill="black" d="M 1126.91 471.217 C 1152.17 469.923 1159.62 480.161 1162.14 503.12 C 1153.01 503.759 1144.79 503.713 1135.67 503.681 C 1123.39 503.46 1111.11 503.068 1098.84 502.505 C 1102.53 484.792 1107.95 474.732 1126.91 471.217 z"/>
  </mask>
</defs>
<g mask="url(#cutouts)">
<path fill="rgb(45,160,78)" d="M 277.272 394.426 C 309.814 306.009 354.7 211.902 444.604 171.056 C 583.536 107.935 680.794 214.787 732.35 328.178 C 744.669 355.649 755.936 383.58 766.129 411.909 C 775.705 438.116 783.155 460.072 794.515 486.248 C 811.005 524.244 835.779 557.403 849.781 595.794 C 854.893 609.813 855.639 628.971 850.094 643.074 C 835.557 680.046 804.599 688.826 778.909 708.604 C 798.787 701.202 820.242 693.274 839.855 685.498 C 856.18 679.025 881.57 724.441 889.535 736.775 C 869.471 738.583 849.565 740.8 829.561 742.772 C 749.633 750.653 673.4 776.706 600.515 809.52 C 597.505 810.875 594.555 812.121 591.591 813.614 C 564.318 788.399 539.472 766.331 509.898 743.922 C 455.957 702.768 390.649 664.573 350.758 608.981 C 277.694 507.162 454.158 362.464 542.842 358.91 C 620.05 355.815 750.529 522.408 750.769 595.329 C 750.963 653.948 682.676 708.737 637.157 738.738 C 625.191 746.597 611.997 753.875 600.689 762.931 C 655.579 742.002 752.373 686.069 777.468 629.827 C 789.903 601.957 783.323 569.362 772.737 542.065 C 745.498 471.821 666.172 353.939 596.14 323.163 C 563.686 308.9 531.855 313.731 499.63 326.387 C 424.401 355.932 313.58 436.436 280.536 512.454 C 269.677 537.435 265.558 566.428 275.9 592.27 C 303.8 661.99 406.456 704.005 466.767 742.258 C 501.023 763.985 535.16 790.172 559.407 822.931 C 518.616 827.758 482.446 818.135 444.311 805.944 C 359.627 778.875 276.103 748.603 187.324 737.851 C 183.728 737.415 180.014 736.61 176.517 735.591 C 163.957 724.718 196.733 677.194 207.433 679.563 C 247.382 688.407 288.129 708.658 328.229 717.431 C 284.293 690.152 212.807 674.018 198.54 614.471 C 183.109 550.062 232.564 488.975 265.316 438.075 C 286.536 405.706 312.415 365.359 338.088 336.431 L 336.63 333.103 C 316.363 353.073 296.572 373.519 277.272 394.426 z"/>
<path fill="rgb(197,241,188)" d="M 336.63 333.103 C 341.684 327.982 344.994 325.227 350.656 320.743 C 347.078 325.235 341.773 332.362 338.088 336.431 L 336.63 333.103 z"/>
<path fill="rgb(45,160,78)" d="M 596.143 485.127 C 621.355 484.487 623.777 534.834 599.047 544.818 C 573.421 541.85 570.132 495.638 596.143 485.127 z"/>
<path fill="rgb(45,160,78)" d="M 477.224 485.955 C 503.615 486.82 505.616 533.324 485.276 545.065 C 457.332 545.082 454.769 495.472 477.224 485.955 z"/>
<path fill="rgb(45,160,78)" d="M 491.276 553.492 C 503.568 558.79 507.147 571.178 527.245 574.882 C 552.209 579.483 563.319 572.442 582.608 556.73 C 584.444 555.235 586.585 555.718 588.458 556.246 C 589.851 561.241 586.978 564.81 584.374 569.503 C 574.312 583.668 560.635 592.352 543.023 593.444 C 528.926 594.231 515.091 589.412 504.533 580.039 C 496.645 572.951 491.876 564.143 491.276 553.492 z"/>
<path fill="rgb(45,160,78)" d="M 1479.17 441.413 C 1485.46 441.106 1491.77 441.634 1497.92 442.983 C 1513.01 446.321 1526.13 455.581 1534.33 468.683 C 1556.39 504.019 1548.14 573.519 1505.29 590.417 C 1479.6 600.551 1457.4 595.487 1432.03 589.36 L 1431.84 633.901 L 1431.71 649.874 C 1417.29 651.032 1402.82 654.039 1388.36 656.074 C 1387.38 634.785 1388.21 607.632 1388.18 585.644 L 1387.98 445.128 C 1396.98 445.162 1416.48 444.444 1424.02 445.724 C 1427.19 448.188 1426.33 447.792 1427.9 452.134 C 1431.2 454.92 1446.73 448.003 1451.86 446.405 C 1461.89 443.272 1468.7 442.203 1479.17 441.413 z"/>
<path fill="rgb(45,160,78)" d="M 1624.44 442.364 C 1646.08 439.465 1676.2 442.287 1692.63 458.219 C 1699.01 464.352 1703.58 472.126 1705.83 480.686 C 1708.86 492.474 1707.78 516.889 1707.64 530.219 C 1707.3 550.827 1707.18 571.439 1707.3 592.05 C 1694.71 592.488 1682.11 592.507 1669.52 592.106 C 1668.99 588.435 1668.82 587.3 1667.56 583.837 C 1664.37 583.722 1650.93 590.459 1645.6 592.251 C 1640.28 594.011 1634.8 595.246 1629.24 595.938 C 1608.67 598.505 1591.93 594.683 1575.68 581.976 C 1560.64 567.852 1557.98 536.292 1573.67 522.022 C 1596.88 500.925 1635.74 504.71 1665.04 504.918 C 1665.11 501.07 1665.4 491.183 1664.13 488.138 C 1653.3 462.227 1598.53 477.459 1581.96 482.924 C 1580.62 473.17 1578.72 463.501 1576.26 453.967 C 1592.66 448.357 1607.12 444.291 1624.44 442.364 z"/>
<path fill="rgb(45,160,78)" d="M 1131.56 441.409 C 1132.51 441.357 1133.46 441.337 1134.41 441.347 C 1161.31 441.717 1184.71 453.232 1196.11 478.448 C 1204.05 496.03 1203.19 512.309 1202.85 531.078 C 1168.6 531.651 1132.89 531.013 1098.51 531.056 C 1107.52 572.117 1137.25 567.177 1171.03 561.413 C 1175.35 560.676 1188.06 556.087 1191.58 557.214 L 1192.61 561.71 C 1193.19 569.47 1194.8 579.246 1195.88 587.1 C 1157.85 596.827 1110.65 605.002 1077.55 577.472 C 1047.97 552.874 1046.98 496.209 1071.41 467.851 C 1087.09 449.661 1108.43 443.101 1131.56 441.409 z"/>
<path fill="rgb(45,160,78)" d="M 1719.98 444.954 C 1735.06 444.84 1750.14 444.846 1765.22 444.975 C 1779.85 478.28 1790.37 511.187 1806.05 544.937 C 1816.26 513.131 1829.66 477.047 1841.3 445.57 C 1855.58 445.358 1869.86 445.306 1884.14 445.415 C 1872.69 478.652 1859.13 511.048 1846.2 543.715 L 1802.47 653.443 C 1787.35 654.316 1771.03 654.127 1755.79 654.208 C 1764.76 635.481 1773.86 612.876 1781.72 593.603 C 1777.55 584.55 1774.19 574.31 1770.46 564.929 C 1754.45 524.751 1735.46 485.269 1719.98 444.954 z"/>
<path fill="rgb(45,160,78)" d="M 1004.74 444.919 L 1048.64 445.009 C 1044.3 455.376 1040.13 465.81 1036.11 476.306 C 1030.11 490.527 1024.54 506.429 1018.92 520.941 L 991.249 592.179 C 975.25 592.296 959.249 592.258 943.25 592.064 C 926.871 550.645 908.949 509.942 892.815 468.432 C 889.883 460.889 885.912 453.079 883.802 445.343 C 897.672 444.666 914.772 444.995 928.898 444.876 C 934.994 459.212 939.977 474.397 945.624 488.9 C 953.864 510.064 960.818 528.106 966.431 550.169 C 980.339 515.541 992.221 480.109 1004.74 444.919 z"/>
<path fill="rgb(45,160,78)" d="M 1346.85 366.278 C 1350.58 365.981 1349.86 365.449 1352.33 367.219 C 1354.5 373.019 1352.85 569.347 1352.77 592.01 L 1313.75 592.224 C 1311 592.097 1311.95 592.512 1310.06 590.822 C 1308.95 584.536 1309.82 578.923 1309.72 572.531 C 1309.33 555.134 1309.19 537.733 1309.32 520.332 C 1309.08 471.604 1309.38 422.876 1310.21 374.155 L 1346.85 366.278 z"/>
<path fill="rgb(45,160,78)" d="M 1264.12 444.412 L 1273.98 443.785 L 1274.05 591.977 L 1243.33 592.121 L 1230.86 592.011 C 1230.39 543.373 1230.53 494.731 1231.26 446.096 C 1242.76 446.096 1252.66 445.305 1264.12 444.412 z"/>
<path fill="rgb(45,160,78)" d="M 1247.61 367.13 C 1279.65 366.291 1294.53 403.003 1257.92 415.413 C 1244.52 416.713 1230.55 411.897 1226.5 397.776 C 1224.78 391.722 1225.6 385.23 1228.76 379.787 C 1233.24 372.156 1239.55 369.216 1247.61 367.13 z"/>
</g>
</svg>
